<?xml version="1.0" encoding="UTF-8" standalone="no"?>
<!-- Created with Inkscape (http://www.inkscape.org/) -->

<svg
   width="90mm"
   height="49.243004mm"
   viewBox="0 0 90 49.243007"
   version="1.1"
   id="svg388"
   inkscape:version="1.2.1 (9c6d41e410, 2022-07-14)"
   sodipodi:docname="logo-drawing-1.svg"
   inkscape:export-filename="logo-drawing.svg"
   inkscape:export-xdpi="96"
   inkscape:export-ydpi="96"
   xmlns:inkscape="http://www.inkscape.org/namespaces/inkscape"
   xmlns:sodipodi="http://sodipodi.sourceforge.net/DTD/sodipodi-0.dtd"
   xmlns="http://www.w3.org/2000/svg"
   xmlns:svg="http://www.w3.org/2000/svg">
  <sodipodi:namedview
     id="namedview390"
     pagecolor="#ffffff"
     bordercolor="#000000"
     borderopacity="0.25"
     inkscape:showpageshadow="2"
     inkscape:pageopacity="0.0"
     inkscape:pagecheckerboard="0"
     inkscape:deskcolor="#d1d1d1"
     inkscape:document-units="mm"
     showgrid="false"
     inkscape:zoom="2.587745"
     inkscape:cx="335.81362"
     inkscape:cy="190.32015"
     inkscape:window-width="2560"
     inkscape:window-height="1361"
     inkscape:window-x="-9"
     inkscape:window-y="-9"
     inkscape:window-maximized="1"
     inkscape:current-layer="layer1" />
  <defs
     id="defs385" />
  <g
     inkscape:label="Layer 1"
     inkscape:groupmode="layer"
     id="layer1">
    <path
       style="fill:#d0d0d0;fill-opacity:1;stroke-width:0.0769697"
       d="m 51.309428,49.066354 c 0.0529,-0.0214 0.13951,-0.0214 0.19243,0 0.0529,0.0213 0.01,0.0388 -0.0962,0.0388 -0.10584,0 -0.14913,-0.0175 -0.0962,-0.0388 z m 12.29591,-9.33933 c 0.29406,-0.29633 0.55198,-0.53878 0.57315,-0.53878 0.0212,0 -0.20212,0.24245 -0.49618,0.53878 -0.29406,0.29634 -0.55198,0.53879 -0.57314,0.53879 -0.0212,0 0.20211,-0.24245 0.49617,-0.53879 z m -19.3518,-2.04611 c 0.004,-0.0897 0.0219,-0.1079 0.0465,-0.0465 0.0222,0.0556 0.0195,0.12195 -0.006,0.14753 -0.0256,0.0256 -0.0438,-0.0199 -0.0404,-0.10103 z m 2.07818,-0.61575 c 0.004,-0.0897 0.0219,-0.10791 0.0465,-0.0465 0.0222,0.0556 0.0195,0.12195 -0.006,0.14753 -0.0256,0.0256 -0.0438,-0.0199 -0.0404,-0.10102 z m -2.13921,-1.76389 c 5.3e-4,-0.21167 0.0155,-0.28913 0.0332,-0.17213 0.0177,0.117 0.0172,0.29018 -10e-4,0.38485 -0.0183,0.0947 -0.0327,-10e-4 -0.0322,-0.21272 z m -0.01,-2.42455 c 0,-0.10583 0.0175,-0.14913 0.0388,-0.0962 0.0213,0.0529 0.0213,0.13951 0,0.19242 -0.0213,0.0529 -0.0388,0.01 -0.0388,-0.0962 z m 43.50968,-13.43546 c -0.14347,-0.11494 -0.14252,-0.11637 0.0238,-0.0358 0.0952,0.0462 0.17318,0.10003 0.17318,0.1197 0,0.0589 -0.0399,0.0419 -0.19696,-0.0839 z m -59.341998,-4.46 c 1.6e-5,-2.032 0.0099,-2.85221 0.02209,-1.8227 0.01212,1.02951 0.01212,2.69205 -2.7e-5,3.69454 -0.01214,1.00249 -0.02207,0.16016 -0.02207,-1.87184 z m 2.078916,-1.38545 c 8e-6,-2.794 0.0096,-3.9258203 0.02138,-2.51516 0.01175,1.41066 0.01175,3.69666 -1.6e-5,5.08 -0.01175,1.38334 -0.02138,0.22916 -0.02135,-2.56484 z m 3.156328,-1.96273 c 0,-3.8735004 0.0094,-5.4581104 0.02082,-3.5213604 0.01146,1.9367504 0.01146,5.1059804 0,7.0427304 -0.01146,1.93675 -0.02082,0.35213 -0.02082,-3.52137 z m 2.078302,-0.61575 c 0,-4.2121704 0.0093,-5.9353304 0.02069,-3.8292504 0.01138,2.1060901 0.01138,5.5524004 0,7.6584904 -0.01138,2.10608 -0.02069,0.38292 -0.02069,-3.82924 z m 3.078803,-0.077 c 0,-4.2545004 0.0093,-5.9949804 0.02069,-3.8677304 0.01138,2.1272501 0.01138,5.6082004 0,7.7354504 -0.01138,2.12725 -0.02069,0.38678 -0.02069,-3.86772 z m 2.078014,0.84666 c 0,-3.7888304 0.0094,-5.3388104 0.02085,-3.4443904 0.01146,1.8944204 0.01146,4.9943704 0,6.8887904 -0.01146,1.89441 -0.02085,0.34444 -0.02085,-3.4444 z m -17.333029,5.50334 c 6.09e-4,-0.21167 0.01553,-0.28913 0.03322,-0.17213 0.01769,0.117 0.01722,0.29018 -0.0011,0.38485 -0.01827,0.0947 -0.03275,-10e-4 -0.03217,-0.21272 z m 22.160264,0.077 c 0.002,-0.127 0.0188,-0.16964 0.0383,-0.0948 0.0195,0.0749 0.0182,0.1788 -0.003,0.23091 -0.0211,0.0521 -0.037,-0.009 -0.0355,-0.13616 z m -20.083132,-0.19243 c 0,-0.1905 0.01501,-0.26843 0.03336,-0.17318 0.01835,0.0953 0.01835,0.25111 0,0.34636 -0.01835,0.0952 -0.03336,0.0173 -0.03336,-0.17318 z m 17.925132,-0.61576 c 0,-0.10583 0.0175,-0.14913 0.0388,-0.0962 0.0213,0.0529 0.0213,0.13951 0,0.19243 -0.0213,0.0529 -0.0388,0.01 -0.0388,-0.0962 z m 38.12179,-0.73545 c -0.14347,-0.11495 -0.14252,-0.11637 0.0238,-0.0358 0.0952,0.0462 0.17318,0.10002 0.17318,0.1197 0,0.0589 -0.0399,0.0419 -0.19695,-0.0839 z m -36.04361,-0.11121 c 0,-0.10584 0.0175,-0.14913 0.0388,-0.0962 0.0213,0.0529 0.0213,0.13951 0,0.19243 -0.0213,0.0529 -0.0388,0.01 -0.0388,-0.0962 z m -2.16123,-0.58369 c 0.004,-0.0897 0.0219,-0.1079 0.0465,-0.0465 0.0222,0.0556 0.0195,0.12195 -0.006,0.14752 -0.0256,0.0256 -0.0438,-0.0199 -0.0404,-0.10102 z m 2.07818,-0.61576 c 0.004,-0.0897 0.0219,-0.1079 0.0465,-0.0465 0.0222,0.0556 0.0195,0.12195 -0.006,0.14753 -0.0256,0.0256 -0.0438,-0.0199 -0.0404,-0.10103 z m -2.15515,-0.46182 c 0.004,-0.0897 0.0219,-0.1079 0.0465,-0.0465 0.0222,0.0556 0.0195,0.12195 -0.006,0.14753 -0.0256,0.0256 -0.0438,-0.0199 -0.0404,-0.10103 z M 23.69642,13.066454 c 0,-0.016 0.06061,-0.0766 0.134697,-0.1347 0.122078,-0.0957 0.1248,-0.093 0.02906,0.0291 -0.100551,0.12821 -0.163757,0.16899 -0.163757,0.10564 z m 2.001212,-2.00122 c 0,-0.016 0.06061,-0.0766 0.134697,-0.13469 0.122078,-0.0957 0.124801,-0.093 0.02906,0.0291 -0.100551,0.12821 -0.163757,0.16898 -0.163757,0.10563 z M 78.330578,7.9629336 c 0.0556,-0.0222 0.12194,-0.0195 0.14752,0.006 0.0256,0.0256 -0.0199,0.0438 -0.10102,0.0404 -0.0897,-0.004 -0.1079,-0.0219 -0.0465,-0.0465 z m -18.31879,-0.077 c 0.0556,-0.0222 0.12195,-0.0195 0.14752,0.006 0.0256,0.0256 -0.0199,0.0438 -0.10102,0.0404 -0.0897,-0.004 -0.1079,-0.0219 -0.0465,-0.0465 z m 3.07879,0 c 0.0556,-0.0222 0.12195,-0.0195 0.14752,0.006 0.0256,0.0256 -0.0199,0.0438 -0.10102,0.0404 -0.0897,-0.004 -0.10791,-0.0219 -0.0465,-0.0465 z m 19.31548,-0.002 c 0.0957,-0.0184 0.23429,-0.0177 0.30788,0.002 0.0736,0.0193 -0.005,0.0343 -0.17408,0.0335 -0.16934,-8.5e-4 -0.22955,-0.0166 -0.1338,-0.035 z m 2.36268,-3.71708 c 0,-1.799172 0.0101,-2.535194 0.0224,-1.635611 0.0123,0.899583 0.0123,2.371631 0,3.271211 -0.0123,0.89958 -0.0224,0.16356 -0.0224,-1.6356 z m -6.00443,-0.808187 c -3e-5,-1.397 0.0104,-1.979359 0.0231,-1.294131 0.0127,0.685229 0.0128,1.828228 5e-5,2.539998 -0.0127,0.71177 -0.0231,0.15113 -0.0232,-1.245867 z m -46.177756,2.193817 c 0.07662,-0.0847 0.15663,-0.15394 0.177797,-0.15394 0.02117,0 -0.02421,0.0693 -0.100828,0.15394 -0.07662,0.0847 -0.156633,0.15394 -0.1778,0.15394 -0.02117,0 0.02421,-0.0693 0.100831,-0.15394 z m 0.615756,-0.61576 c 0.07662,-0.0847 0.156631,-0.15394 0.177798,-0.15394 0.02117,0 -0.02421,0.0693 -0.100828,0.15394 -0.07662,0.0847 -0.156633,0.15394 -0.1778,0.15394 -0.02117,0 0.02421,-0.0693 0.10083,-0.15394 z m -2.039696,-0.96212 c 0.09943,-0.10583 0.198091,-0.19242 0.219257,-0.19242 0.02117,0 -0.04286,0.0866 -0.142287,0.19242 -0.09943,0.10583 -0.198094,0.19243 -0.219261,0.19243 -0.02117,0 0.04287,-0.0866 0.142291,-0.19243 z m 0.461817,-0.461817 c 0.09943,-0.105834 0.198091,-0.192425 0.219257,-0.192425 0.02117,0 -0.04286,0.08659 -0.142287,0.192425 -0.09943,0.105833 -0.198091,0.192427 -0.219258,0.192427 -0.02117,0 0.04286,-0.08659 0.142288,-0.192427 z m 36.387429,0.05871 c 0.22225,-0.01555 0.58593,-0.01555 0.80818,0 0.22225,0.01555 0.0404,0.02827 -0.40409,0.02827 -0.4445,0 -0.62634,-0.01272 -0.40409,-0.02827 z M 42.08249,3.1856646 c -0.09574,-0.122078 -0.09302,-0.124801 0.02906,-0.02906 0.07408,0.0581 0.134697,0.118714 0.134697,0.134697 0,0.06335 -0.06321,0.02258 -0.163757,-0.105637 z m -4.587656,-0.226521 c 0.07489,-0.01951 0.178798,-0.01823 0.230907,0.0028 0.05211,0.02108 -0.0092,0.03705 -0.136159,0.03548 -0.127,-0.0016 -0.169638,-0.01882 -0.09475,-0.03833 z M 79.364888,0.65033462 c 0.0741,-0.01936 0.19531,-0.01936 0.26939,0 0.0741,0.01936 0.0135,0.0352 -0.1347,0.0352 -0.14816,0 -0.20878,-0.01584 -0.13469,-0.0352 z m 3.00181,0 c 0.0741,-0.01936 0.19531,-0.01936 0.2694,0 0.0741,0.01936 0.0135,0.0352 -0.1347,0.0352 -0.14817,0 -0.20878,-0.01584 -0.1347,-0.0352 z m 3.00182,0 c 0.0741,-0.01936 0.19531,-0.01936 0.2694,0 0.0741,0.01936 0.0135,0.0352 -0.1347,0.0352 -0.14817,0 -0.20878,-0.01584 -0.1347,-0.0352 z"
       id="path182" />
    <path
       style="fill:#b9b9b9;fill-opacity:1;stroke-width:0.0769697"
       d="m 51.657258,49.063994 c 0.0749,-0.0195 0.1788,-0.0182 0.23091,0.003 0.0521,0.0211 -0.009,0.0371 -0.13616,0.0355 -0.127,-0.002 -0.16964,-0.0188 -0.0948,-0.0383 z m -0.98441,-9.29848 c -1e-5,-3.89467 0.009,-5.49922 0.0208,-3.56567 0.0115,1.93355 0.0115,5.1201 10e-6,7.08121 -0.0114,1.96112 -0.0208,0.37913 -0.0208,-3.51554 z m 3.15572,-0.15394 c 1e-5,-3.81 0.009,-5.35737 0.0208,-3.43859 0.0115,1.91877 0.0115,5.03605 -10e-6,6.92727 -0.0115,1.89123 -0.0208,0.32132 -0.0208,-3.48868 z m 3.88859,6.85973 c 0,-0.016 0.0606,-0.0766 0.1347,-0.1347 0.12208,-0.0957 0.1248,-0.093 0.0291,0.0291 -0.10055,0.12821 -0.16376,0.16898 -0.16376,0.10564 z m 0.73121,-0.74064 c 0.0766,-0.0847 0.15663,-0.15394 0.1778,-0.15394 0.0212,0 -0.0242,0.0693 -0.10083,0.15394 -0.0766,0.0847 -0.15663,0.15394 -0.1778,0.15394 -0.0212,0 0.0242,-0.0693 0.10083,-0.15394 z m -2.54176,-6.73485 c 0,-3.47133 0.009,-4.88018 0.021,-3.13077 0.0115,1.74942 0.0115,4.5896 -2e-5,6.31152 -0.0115,1.72192 -0.021,0.29058 -0.021,-3.18075 z m -7.31215,-0.077 c 0,-3.429 0.009,-4.84302 0.021,-3.14226 0.0116,1.70076 0.0116,4.50631 2e-5,6.23455 -0.0116,1.72824 -0.021,0.33671 -0.021,-3.09229 z m 8.08361,5.65727 c 0.0766,-0.0847 0.15663,-0.15393 0.1778,-0.15393 0.0212,0 -0.0242,0.0693 -0.10083,0.15393 -0.0766,0.0847 -0.15663,0.15394 -0.1778,0.15394 -0.0212,0 0.0242,-0.0693 0.10083,-0.15394 z m 2.38366,-7.3506 c 10e-6,-2.49767 0.01,-3.5083 0.0216,-2.24586 0.0119,1.26245 0.0118,3.306 -2e-5,4.54121 -0.0119,1.23522 -0.0216,0.20231 -0.0216,-2.29535 z m 3.8124,3.24215 c 0,-0.016 0.0606,-0.0766 0.1347,-0.1347 0.12207,-0.0957 0.1248,-0.093 0.0291,0.0291 -0.10055,0.12821 -0.16376,0.16899 -0.16376,0.10564 z m -1.75192,-4.49291 0.0184,-3.29045 0.0209,3.26069 c 0.0198,3.08485 0.0282,3.25504 0.1548,3.15576 0.12113,-0.095 0.12381,-0.0921 0.0282,0.0298 -0.0581,0.0741 -0.13604,0.1347 -0.17318,0.1347 -0.038,0 -0.0595,-1.44025 -0.0492,-3.29046 z m -16.86259,1.44318 c 0,-0.10583 0.0175,-0.14913 0.0388,-0.0962 0.0213,0.0529 0.0213,0.13951 0,0.19242 -0.0213,0.0529 -0.0388,0.01 -0.0388,-0.0962 z m 18.61451,0.12488 c 0,-0.016 0.0606,-0.0766 0.1347,-0.1347 0.12207,-0.0957 0.1248,-0.093 0.0291,0.0291 -0.10055,0.12822 -0.16376,0.16899 -0.16376,0.10564 z m -16.54241,-0.24675 c 0.004,-0.0897 0.0219,-0.1079 0.0465,-0.0465 0.0222,0.0556 0.0195,0.12195 -0.006,0.14753 -0.0256,0.0256 -0.0438,-0.0199 -0.0404,-0.10103 z m 17.80082,-1.49449 c 0,-0.35983 0.0133,-0.50704 0.0295,-0.32712 0.0162,0.17991 0.0162,0.47432 0,0.65424 -0.0162,0.17992 -0.0295,0.0327 -0.0295,-0.32712 z m -19.93214,-1.80879 c 1.5e-4,-0.55033 0.0124,-0.76537 0.0272,-0.47786 0.0148,0.28751 0.0147,0.73778 -2.3e-4,1.00061 -0.015,0.26282 -0.0271,0.0276 -0.027,-0.52275 z m 2.07639,0 c 2.3e-4,-0.42333 0.0131,-0.5867 0.0287,-0.36302 0.0156,0.22366 0.0154,0.57003 -2.7e-4,0.76969 -0.0158,0.19966 -0.0285,0.0167 -0.0283,-0.40667 z m -2.70109,-15.66333 c 0,-0.1905 0.015,-0.26844 0.0334,-0.17319 0.0183,0.0953 0.0183,0.25112 0,0.34637 -0.0183,0.0952 -0.0334,0.0173 -0.0334,-0.17318 z m -18.010911,-0.53879 c 0,-0.1905 0.01501,-0.26843 0.03336,-0.17318 0.01835,0.0952 0.01835,0.25111 0,0.34636 -0.01835,0.0953 -0.03336,0.0173 -0.03336,-0.17318 z m 20.085981,0 c 0,-0.14817 0.0159,-0.20878 0.0352,-0.1347 0.0194,0.0741 0.0194,0.19531 0,0.2694 -0.0194,0.0741 -0.0352,0.0135 -0.0352,-0.1347 z m -22.164163,-1.15455 c 0,-0.1905 0.01501,-0.26843 0.03336,-0.17318 0.01835,0.0952 0.01835,0.25112 0,0.34637 -0.01835,0.0953 -0.03336,0.0173 -0.03336,-0.17319 z m 20.003313,-0.38485 c 0,-0.10583 0.0175,-0.14912 0.0388,-0.0962 0.0213,0.0529 0.0213,0.13951 0,0.19243 -0.0214,0.0529 -0.0388,0.01 -0.0388,-0.0962 z m 2.0721,-0.2758 c 0.004,-0.0897 0.0219,-0.10791 0.0465,-0.0465 0.0222,0.0556 0.0195,0.12195 -0.006,0.14753 -0.0256,0.0256 -0.0438,-0.0199 -0.0404,-0.10102 z m -20.080159,-1.45601 c 0.0016,-0.127 0.01882,-0.16964 0.03833,-0.0948 0.01952,0.0749 0.01823,0.1788 -0.0029,0.23091 -0.02109,0.0521 -0.03705,-0.009 -0.03548,-0.13616 z m -0.630763,-2.54 c 0.272721,-0.27517 0.513174,-0.50031 0.534341,-0.50031 0.02117,0 -0.184651,0.22514 -0.457371,0.50031 -0.272721,0.27516 -0.513174,0.5003 -0.534341,0.5003 -0.02117,0 0.18465,-0.22514 0.457371,-0.5003 z M 56.317268,7.8859336 c 0.0556,-0.0222 0.12195,-0.0195 0.14753,0.006 0.0256,0.0256 -0.0199,0.0438 -0.10103,0.0404 -0.0897,-0.004 -0.1079,-0.0219 -0.0465,-0.0465 z m 3.46364,0 c 0.0556,-0.0222 0.12195,-0.0195 0.14752,0.006 0.0256,0.0256 -0.0199,0.0438 -0.10102,0.0404 -0.0897,-0.004 -0.1079,-0.0219 -0.0465,-0.0465 z m -2.72156,-3.0647 c -2e-5,-1.608662 0.0102,-2.277692 0.0227,-1.486728 0.0125,0.790968 0.0125,2.107148 4e-5,2.924848 -0.0125,0.8177 -0.0227,0.17055 -0.0227,-1.43812 z m -1.38519,-0.34636 c 0,-1.756832 0.0101,-2.475537 0.0225,-1.59712 0.0124,0.87842 0.0124,2.31583 0,3.19424 -0.0124,0.87842 -0.0225,0.15971 -0.0225,-1.59712 z m 15.39394,-0.15394 c 0,-1.756831 0.0101,-2.475536 0.0225,-1.597119 0.0124,0.878416 0.0124,2.315829 0,3.194239 -0.0124,0.87842 -0.0225,0.15972 -0.0225,-1.59712 z m 1.46158,-0.0385 c 3e-5,-1.35467 0.0105,-1.898011 0.0233,-1.207429 0.0128,0.690579 0.0128,1.798949 -6e-5,2.463029 -0.0128,0.66409 -0.0233,0.0991 -0.0232,-1.2556 z m 14.88112,2.36771 c 0.22367,-0.0156 0.57004,-0.0154 0.7697,3.9e-4 0.19966,0.0158 0.0167,0.0286 -0.40667,0.0284 -0.42334,-2.3e-4 -0.5867,-0.0131 -0.36303,-0.0287 z m -7.20633,-0.55893 c 0,-0.10583 0.0175,-0.14912 0.0388,-0.0962 0.0213,0.0529 0.0213,0.13951 0,0.19243 -0.0214,0.0529 -0.0388,0.01 -0.0388,-0.0962 z m -1.46851,-0.12186 c 0.004,-0.0897 0.0219,-0.10791 0.0465,-0.0465 0.0222,0.0556 0.0195,0.12195 -0.006,0.14753 -0.0256,0.0256 -0.0438,-0.0199 -0.0404,-0.10102 z m -1.7703,-1.38546 c 0.004,-0.0897 0.0219,-0.1079 0.0465,-0.0465 0.0222,0.0556 0.0195,0.12195 -0.006,0.14752 -0.0256,0.0256 -0.0438,-0.0199 -0.0404,-0.10102 z m -7.60822,-0.41692 c 0,-0.14816 0.0159,-0.20878 0.0352,-0.13469 0.0194,0.0741 0.0194,0.19531 0,0.26939 -0.0194,0.0741 -0.0352,0.0135 -0.0352,-0.1347 z m 7.60822,-0.35278 c 0.004,-0.0897 0.0219,-0.1079 0.0465,-0.0465 0.0222,0.0556 0.0195,0.12195 -0.006,0.14753 -0.0256,0.0256 -0.0438,-0.0199 -0.0404,-0.10103 z m -9.80047,-0.240325 c 0.0953,-0.01835 0.25111,-0.01835 0.34636,0 0.0952,0.01835 0.0173,0.03336 -0.17318,0.03336 -0.1905,0 -0.26843,-0.01501 -0.17318,-0.03336 z m -25.461873,-0.773105 -0.26525,-0.288636 0.288637,0.26525 c 0.268658,0.246889 0.324027,0.312023 0.26525,0.312023 -0.01286,0 -0.142748,-0.129887 -0.288637,-0.288637 z m -4.47453,0.159088 c 0.05556,-0.02224 0.121949,-0.0195 0.147526,0.0061 0.02559,0.02558 -0.0199,0.04377 -0.101023,0.04043 -0.08967,-0.0037 -0.107905,-0.02193 -0.0465,-0.0465 z m 32.515053,-1.679239 c 8e-4,-0.169333 0.0166,-0.229543 0.035,-0.1338 0.0184,0.09574 0.0177,0.234289 -0.002,0.307879 -0.0193,0.07359 -0.0343,-0.0047 -0.0335,-0.174079 z"
       id="path180" />
    <path
       style="fill:#a3a3a3;fill-opacity:1;stroke-width:0.0769697"
       d="m 51.468178,46.986564 c 0.0556,-0.0222 0.12195,-0.0195 0.14753,0.006 0.0256,0.0256 -0.0199,0.0438 -0.10103,0.0404 -0.0897,-0.004 -0.1079,-0.0219 -0.0465,-0.0465 z m 0.38485,0 c 0.0556,-0.0222 0.12195,-0.0195 0.14753,0.006 0.0256,0.0256 -0.0199,0.0438 -0.10103,0.0404 -0.0897,-0.004 -0.1079,-0.0219 -0.0465,-0.0465 z m 6.24898,-0.90954 c 0.0994,-0.10583 0.19809,-0.19242 0.21925,-0.19242 0.0212,0 -0.0429,0.0866 -0.14228,0.19242 -0.0994,0.10584 -0.19809,0.19243 -0.21926,0.19243 -0.0212,0 0.0429,-0.0866 0.14229,-0.19243 z m -1.77031,-1.14512 c 0,-0.016 0.0606,-0.0766 0.1347,-0.1347 0.12208,-0.0957 0.1248,-0.093 0.0291,0.0291 -0.10055,0.12821 -0.16376,0.16898 -0.16376,0.10563 z m 0.53879,-0.53879 c 0,-0.016 0.0606,-0.0766 0.1347,-0.13469 0.12208,-0.0957 0.1248,-0.093 0.0291,0.0291 -0.10055,0.12821 -0.16376,0.16898 -0.16376,0.10563 z m -10.53877,-6.86614 c 0.004,-0.0897 0.0219,-0.1079 0.0465,-0.0465 0.0222,0.0556 0.0195,0.12195 -0.006,0.14753 -0.0256,0.0256 -0.0438,-0.0199 -0.0404,-0.10103 z m -2.07818,-0.38485 c 0.004,-0.0897 0.0219,-0.1079 0.0465,-0.0465 0.0222,0.0556 0.0195,0.12195 -0.006,0.14753 -0.0256,0.0256 -0.0438,-0.0199 -0.0404,-0.10103 z m 2.0182,-2.03328 c 0,-0.23283 0.0144,-0.32808 0.0321,-0.21167 0.0177,0.11642 0.0177,0.30692 0,0.42334 -0.0177,0.11641 -0.0321,0.0212 -0.0321,-0.21167 z m -0.004,-2.11667 c 7.9e-4,-0.16933 0.0166,-0.22954 0.035,-0.13379 0.0184,0.0957 0.0177,0.23428 -0.002,0.30787 -0.0193,0.0736 -0.0343,-0.005 -0.0335,-0.17408 z M 25.563232,18.367934 c 8.47e-4,-0.16933 0.01662,-0.22954 0.03503,-0.1338 0.01841,0.0957 0.01771,0.23429 -0.0016,0.30788 -0.01926,0.0736 -0.03433,-0.005 -0.03347,-0.17408 z m 20.090646,-0.0385 c 0,-0.1905 0.015,-0.26844 0.0334,-0.17319 0.0183,0.0953 0.0183,0.25112 0,0.34637 -0.0183,0.0952 -0.0334,0.0173 -0.0334,-0.17318 z m -2.08129,-0.53879 c 0,-0.14817 0.0159,-0.20878 0.0352,-0.1347 0.0194,0.0741 0.0194,0.19531 0,0.2694 -0.0194,0.0741 -0.0352,0.0135 -0.0352,-0.1347 z m 1.99551,-1.5394 c 0,-0.10583 0.0175,-0.14912 0.0388,-0.0962 0.0213,0.0529 0.0213,0.13951 0,0.19243 -0.0214,0.0529 -0.0388,0.01 -0.0388,-0.0962 z m -22.087451,-0.11545 c 0.0016,-0.127 0.01882,-0.16964 0.03833,-0.0948 0.01952,0.0749 0.01823,0.1788 -0.0029,0.23091 -0.02108,0.0521 -0.03705,-0.009 -0.03548,-0.13616 z m 20.003191,-0.16035 c 0.004,-0.0897 0.0219,-0.10791 0.0465,-0.0465 0.0222,0.0556 0.0195,0.12195 -0.006,0.14753 -0.0256,0.0256 -0.0438,-0.0199 -0.0404,-0.10102 z m -17.996021,-0.95571 c 0,-0.1905 0.01501,-0.26843 0.03336,-0.17318 0.01835,0.0952 0.01835,0.25111 0,0.34636 -0.01835,0.0953 -0.03336,0.0173 -0.03336,-0.17318 z m 19.997231,-0.12187 c 0.004,-0.0897 0.0219,-0.1079 0.0465,-0.0465 0.0222,0.0556 0.0195,0.12195 -0.006,0.14752 -0.0256,0.0256 -0.0438,-0.0199 -0.0404,-0.10102 z m -2.07818,-0.15394 c 0.004,-0.0897 0.0219,-0.1079 0.0465,-0.0465 0.0222,0.0556 0.0195,0.12195 -0.006,0.14752 -0.0256,0.0256 -0.0438,-0.0199 -0.0404,-0.10102 z m -17.593651,-0.80177 c 0.07662,-0.0847 0.156632,-0.15394 0.177799,-0.15394 0.02117,0 -0.02421,0.0693 -0.100829,0.15394 -0.07662,0.0847 -0.156632,0.15394 -0.177799,0.15394 -0.02117,0 0.02421,-0.0693 0.100829,-0.15394 z m 19.594861,-0.12186 c 0.004,-0.0897 0.0219,-0.10791 0.0465,-0.0465 0.0222,0.0556 0.0195,0.12195 -0.006,0.14753 -0.0256,0.0256 -0.0438,-0.0199 -0.0404,-0.10102 z m -18.671224,-0.80177 c 0.16535,-0.16934 0.317953,-0.30788 0.33912,-0.30788 0.02117,0 -0.0968,0.13854 -0.262151,0.30788 -0.165349,0.16933 -0.317954,0.30788 -0.33912,0.30788 -0.02117,0 0.0968,-0.13855 0.262151,-0.30788 z m -2.578485,-0.33694 c 0,-0.016 0.06061,-0.0766 0.134697,-0.1347 0.122078,-0.0957 0.124801,-0.093 0.02906,0.0291 -0.100551,0.12821 -0.163757,0.16899 -0.163757,0.10564 z m 1.231515,-1.23152 c 0,-0.016 0.06061,-0.0766 0.134697,-0.13469 0.122078,-0.0957 0.124801,-0.093 0.02906,0.0291 -0.100551,0.12821 -0.163757,0.16898 -0.163757,0.10563 z M 86.446098,6.6518736 c 0.11642,-0.0176 0.30692,-0.0176 0.42333,0 0.11642,0.0176 0.0212,0.0321 -0.21166,0.0321 -0.23284,0 -0.32809,-0.0144 -0.21167,-0.0321 z m -6.21929,-3.254565 c 0,-1.418166 0.0104,-1.998325 0.0231,-1.289242 0.0127,0.709083 0.0127,1.869397 0,2.578487 -0.0127,0.70908 -0.0231,0.12892 -0.0231,-1.289245 z m -3.26115,0.955705 c 0.004,-0.0897 0.0219,-0.1079 0.0465,-0.0465 0.0222,0.0556 0.0195,0.12195 -0.006,0.14753 -0.0256,0.0256 -0.0438,-0.0199 -0.0404,-0.10103 z m 0,-0.30788 c 0.004,-0.0897 0.0219,-0.1079 0.0465,-0.0465 0.0222,0.0556 0.0195,0.12195 -0.006,0.14753 -0.0256,0.0256 -0.0438,-0.0199 -0.0404,-0.10103 z m -2.09408,-1.629168 c -0.0957,-0.122079 -0.093,-0.124801 0.0291,-0.02906 0.12822,0.100551 0.16899,0.163758 0.10564,0.163758 -0.016,0 -0.0766,-0.06061 -0.13469,-0.134697 z M 37.186954,0.88095962 c 0.07489,-0.01952 0.178798,-0.01823 0.23091,0.0029 0.05211,0.02108 -0.0092,0.03705 -0.136162,0.03548 -0.127,-0.0016 -0.169638,-0.01882 -0.09475,-0.03833 z m 0.575808,0.0024 c 0.05292,-0.02135 0.139509,-0.02135 0.192426,0 0.05292,0.02135 0.0096,0.03882 -0.09621,0.03882 -0.105833,0 -0.14913,-0.01747 -0.09621,-0.03882 z"
       id="path178" />
    <path
       style="fill:#ff7f2a;fill-opacity:1;stroke-width:0.0769697"
       d="m 61.835038,38.572484 c 0.16535,-0.16934 0.31795,-0.30788 0.33912,-0.30788 0.0212,0 -0.0968,0.13854 -0.26215,0.30788 -0.16535,0.16933 -0.31796,0.30788 -0.33912,0.30788 -0.0212,0 0.0968,-0.13855 0.26215,-0.30788 z m -15.50332,-0.8146 c 0.004,-0.0897 0.0219,-0.1079 0.0465,-0.0465 0.0222,0.0556 0.0195,0.12195 -0.006,0.14753 -0.0256,0.0256 -0.0438,-0.0199 -0.0404,-0.10103 z m -2.07818,-0.84666 c 0.004,-0.0897 0.0219,-0.10791 0.0465,-0.0465 0.0222,0.0556 0.0195,0.12195 -0.006,0.14753 -0.0256,0.0256 -0.0438,-0.0199 -0.0404,-0.10102 z m 2.01299,-1.18662 c 0,-0.14817 0.0158,-0.20878 0.0352,-0.1347 0.0194,0.0741 0.0194,0.19531 0,0.2694 -0.0194,0.0741 -0.0352,0.0135 -0.0352,-0.1347 z m 19.94808,-1.88576 c 8e-5,-0.635 0.012,-0.88453 0.0265,-0.55451 0.0145,0.33002 0.0144,0.84956 -2.3e-4,1.15454 -0.0146,0.30498 -0.0264,0.035 -0.0263,-0.60003 z m 14.36255,-10.69424 v -1.6594 H 40.783822 0.99048965 v -1.42394 -1.42393 H 8.1208637 15.251237 l 1.432505,-0.81863 c 4.480517,-2.56047 6.993249,-4.4171 9.008147,-6.65602 1.00618,-1.11806 1.708186,-2.0239503 3.393167,-4.3786904 0.772459,-1.0795 1.633847,-2.22013 1.914197,-2.53474 1.370338,-1.537789 3.172235,-2.685463 4.914132,-3.129931 0.917768,-0.23417998 2.178272,-0.26462398 2.90771,-0.07023 2.543236,0.677776 5.031633,3.698091 5.836383,7.083961 0.47478,1.9975904 0.97396,6.9318104 0.97508,9.6383704 l 2.6e-4,0.86591 h 17.47212 17.47212 v -1.69975 c 0,-0.93486 0.0297,-1.6882 0.066,-1.67409 0.17587,0.0683 7.93883,4.71898 7.93883,4.756 0,0.0312 -7.56543,4.55752 -7.94712,4.75468 -0.0318,0.0164 -0.0577,-0.71691 -0.0577,-1.62957 z m -57.034547,-5.85424 c 0,-0.74084 -0.01858,-1.34697 -0.0413,-1.34697 -0.02271,0 -0.435158,0.27574 -0.916543,0.61276 -0.481384,0.33702 -1.402619,0.94315 -2.047187,1.34697 l -1.171942,0.73421 h 2.088485 2.088485 z m 4.849091,-2.39006 v -3.73703 l -0.379833,0.45642 c -0.531265,0.63838 -1.637178,1.82588 -2.12707,2.284 l -0.411542,0.38485 0.04667,2.17439 0.04667,2.1744 h 1.412554 1.412558 z m 5.23394,-3.26722 c 0,-3.8523304 -0.02955,-7.0042404 -0.06566,-7.0042404 -0.17644,0 -1.537788,1.55907 -2.304471,2.63917 l -0.862597,1.21523 v 5.0770404 5.07705 h 1.616363 1.616364 z m 5.15697,-0.72823 V 3.1723836 l -0.39882,-0.118436 c -0.631566,-0.187555 -1.327857,-0.141976 -2.352847,0.154019 l -0.40409,0.116693 v 7.6563344 7.65634 h 1.577877 1.57788 z m 4.815686,6.63566 c -0.20924,-4.52519 -0.60921,-8.0082203 -1.09796,-9.5611804 -0.25432,-0.80809 -0.670118,-1.64973 -1.21666,-2.4627 -0.242879,-0.36129 -0.454708,-0.65688 -0.470728,-0.65688 -0.01601,0 -0.02913,3.09995 -0.02913,6.8887904 v 6.88879 h 1.432594 1.432594 z M 83.229508,4.3209636 c 0,-1.883831 0.01,-2.654491 0.0223,-1.712574 0.0122,0.941917 0.0122,2.483234 0,3.425154 -0.0122,0.94191 -0.0223,0.17126 -0.0223,-1.71258 z m 5.43554,2.95692 c 0.004,-0.0897 0.0219,-0.1079 0.0465,-0.0465 0.0222,0.0556 0.0195,0.12195 -0.006,0.14752 -0.0256,0.0256 -0.0438,-0.0199 -0.0404,-0.10102 z m -20.53454,-0.55104 c 0.28751,-0.0148 0.73778,-0.0147 1.00061,2.3e-4 0.26282,0.015 0.0276,0.0271 -0.52275,0.027 -0.55033,-1.5e-4 -0.76537,-0.0124 -0.47786,-0.0272 z m 18.10031,-2.94467 c 0,-1.587496 0.0102,-2.236928 0.0228,-1.443178 0.0125,0.79375 0.0125,2.092618 0,2.886368 -0.0125,0.79375 -0.0228,0.14431 -0.0228,-1.44319 z M 73.630638,0.72938362 c 0.0529,-0.02135 0.13951,-0.02135 0.19243,0 0.0529,0.02135 0.01,0.03882 -0.0962,0.03882 -0.10584,0 -0.14913,-0.01747 -0.0962,-0.03882 z"
       id="path176" />
    <path
       style="fill:#767676;fill-opacity:1;stroke-width:0.0769697"
       d="m 47.855218,47.443244 c -0.0957,-0.12208 -0.093,-0.12481 0.0291,-0.0291 0.0741,0.0581 0.1347,0.11872 0.1347,0.1347 0,0.0633 -0.0632,0.0226 -0.16376,-0.10563 z m -0.53879,-0.53879 c -0.0957,-0.12208 -0.093,-0.12481 0.0291,-0.0291 0.12822,0.10055 0.16899,0.16375 0.10564,0.16375 -0.016,0 -0.0766,-0.0606 -0.1347,-0.13469 z m 15.01891,-8.83228 c 0.0994,-0.10583 0.19809,-0.19242 0.21926,-0.19242 0.0212,0 -0.0429,0.0866 -0.14229,0.19242 -0.0994,0.10584 -0.19809,0.19243 -0.21926,0.19243 -0.0212,0 0.0429,-0.0866 0.14229,-0.19243 z m -16.00362,-0.0834 c 0.004,-0.0897 0.0219,-0.1079 0.0465,-0.0465 0.0222,0.0556 0.0195,0.12195 -0.006,0.14752 -0.0256,0.0256 -0.0438,-0.0199 -0.0404,-0.10102 z m -2.0721,-1.34055 c 0,-0.10584 0.0175,-0.14913 0.0388,-0.0962 0.0213,0.0529 0.0213,0.13951 0,0.19243 -0.0213,0.0529 -0.0388,0.01 -0.0388,-0.0962 z m 2.00406,-0.50031 c 0.002,-0.127 0.0188,-0.16964 0.0383,-0.0948 0.0195,0.0749 0.0182,0.1788 -0.003,0.23091 -0.0211,0.0521 -0.0371,-0.009 -0.0355,-0.13616 z m 27.176,-28.3397004 c 0.0749,-0.0195 0.1788,-0.0182 0.23091,0.003 0.0521,0.0211 -0.009,0.0371 -0.13616,0.0355 -0.127,-0.002 -0.16963,-0.0188 -0.0947,-0.0383 z m -9.45272,-3.33333 c 0,-1.799165 0.0101,-2.535188 0.0224,-1.635605 0.0123,0.899585 0.0123,2.371625 0,3.271215 -0.0123,0.89958 -0.0224,0.16356 -0.0224,-1.63561 z m 15.58959,3.1267 c 0,-0.016 0.0606,-0.0766 0.1347,-0.1347 0.12208,-0.0957 0.1248,-0.093 0.0291,0.0291 -0.10055,0.12821 -0.16376,0.16899 -0.16376,0.10564 z m -9.83711,-0.3173 c 0.002,-0.127 0.0188,-0.16964 0.0383,-0.0947 0.0195,0.0749 0.0182,0.1788 -0.003,0.23091 -0.0211,0.0521 -0.037,-0.009 -0.0355,-0.13616 z m 7.54018,-0.19243 c 0,-0.10583 0.0175,-0.14913 0.0388,-0.0962 0.0213,0.0529 0.0213,0.13951 0,0.19242 -0.0214,0.0529 -0.0388,0.01 -0.0388,-0.0962 z m -1.32064,-0.10603 c 0,-0.016 0.0606,-0.0766 0.13469,-0.1347 0.12208,-0.0957 0.12481,-0.093 0.0291,0.0291 -0.10055,0.12822 -0.16376,0.16899 -0.16376,0.10564 z m -8.97188,-0.30233 c -0.0212,-0.0553 -0.0276,-0.53151 -0.0142,-1.05833 l 0.0243,-0.95785 0.0166,1.01542 0.0166,1.01542 0.32712,0.0295 0.32712,0.0295 -0.32953,0.0134 c -0.21055,0.009 -0.34346,-0.0228 -0.3681,-0.087 z m -0.004,-3.940427 c 1.6e-4,-0.508 0.0126,-0.705802 0.0277,-0.439559 0.0151,0.266242 0.015,0.681878 -2.6e-4,0.923636 -0.0153,0.241757 -0.0276,0.02392 -0.0275,-0.484077 z M 56.468428,0.72388262 c 0.18104,-0.01626 0.45813,-0.01603 0.61576,5.03e-4 0.15763,0.01654 0.01,0.02984 -0.32916,0.02956 -0.33866,-2.64e-4 -0.46763,-0.01381 -0.2866,-0.03007 z m 6.19403,3.97e-4 c 0.15875,-0.01661 0.41852,-0.01661 0.57727,0 0.15875,0.0166 0.0289,0.03019 -0.28864,0.03019 -0.3175,0 -0.44738,-0.01359 -0.28863,-0.03019 z m 4.19926,-0.0015 c 0.52101,-0.01333 1.35229,-0.01329 1.84727,9.3e-5 0.49499,0.01338 0.0687,0.0243 -0.94729,0.02425 -1.016,-5e-5 -1.42099,-0.011 -0.89998,-0.02434 z m 5.1107,5.3e-4 c 0.2839,-0.01477 0.76881,-0.01487 1.07758,-2.16e-4 0.30877,0.01465 0.0765,0.02673 -0.51618,0.02685 -0.59266,1.23e-4 -0.84529,-0.01186 -0.5614,-0.02663 z"
       id="path174" />
    <path
       style="fill:#606060;fill-opacity:1;stroke-width:0.0769697"
       d="m 50.564518,48.920824 c -1.84682,-0.40051 -3.62178,-2.03835 -4.83531,-4.46179 -0.71475,-1.42736 -0.9869,-2.40808 -1.20633,-4.34716 -0.15583,-1.37705 -0.27516,-3.90422 -0.2753,-5.83045 l -1.2e-4,-1.55864 H 26.69987 9.1522797 l -0.02074,1.65431 -0.02074,1.65431 -3.98229,-2.36628 c -2.19026,-1.30145 -3.98229,-2.3836 -3.98229,-2.40476 0,-0.0212 1.79203,-1.10331 3.98229,-2.40477 l 3.98229,-2.36627 0.02071,1.69279 0.02071,1.69279 h 39.8303483 39.83035 v 1.42394 1.42394 h -7.12037 -7.12037 l -1.7119,0.85549 c -6.53972,3.2681 -8.51977,4.86457 -13.06758,10.53603 -1.24104,1.54765 -1.94329,2.27638 -2.85704,2.96471 -2.0792,1.56627 -4.46344,2.25553 -6.37114,1.84181 z m 2.64991,-2.12713 0.61576,-0.17788 0.0197,-6.94651 0.0197,-6.94652 h -1.61677 -1.61677 v 7.07975 7.07974 l 0.21166,0.0467 c 0.11642,0.0257 0.24631,0.0606 0.28864,0.0777 0.20452,0.0824 1.52382,-0.0528 2.07818,-0.21295 z m 3.59056,-2.26957 c 0.28147,-0.2889 0.91358,-1.02641 1.40469,-1.63891 l 0.89293,-1.11364 v -4.52439 -4.5244 h -1.61636 -1.61636 v 6.31676 6.31675 l 0.21166,-0.15345 c 0.11642,-0.0844 0.44197,-0.38982 0.72344,-0.67872 z m -8.17026,-5.52831 v -6.27303 h -1.20529 -1.20529 l 0.049,2.52076 c 0.0923,4.74625 0.36028,6.55795 1.22684,8.29348 0.27276,0.54629 1.02979,1.73182 1.10586,1.73182 0.0159,0 0.0289,-2.82286 0.0289,-6.27303 z m 15.18228,-2.2255 0.3656,-0.29456 v -1.87648 -1.87649 h -1.53939 -1.53939 v 3.32367 3.32367 l 1.17378,-1.15263 c 0.64559,-0.63394 1.33831,-1.28517 1.5394,-1.44718 z m 3.25368,-2.315 c 0.43772,-0.27477 1.2914,-0.777 1.89706,-1.11606 l 1.10121,-0.61647 h -1.94257 -1.94256 v 1.11606 c 0,0.61383 0.0205,1.11606 0.0455,1.11606 0.025,0 0.40363,-0.22481 0.84136,-0.49959 z M 0.83655065,25.987934 v -2.50151 h 0.53878805 0.538787 v 2.50151 2.50152 H 1.3753387 0.83655065 Z M 87.735338,25.603084 v -2.50151 h 0.53879 0.53879 v 2.50151 2.50152 h -0.53879 -0.53879 z M 77.806248,7.8476936 c -0.42358,-0.12102 -0.46182,-0.18513 -0.46182,-0.77422 v -0.53833 l 0.21167,0.0548 c 0.11641,0.0301 0.36828,0.0716 0.55969,0.0922 0.28854,0.031 0.37406,0.009 0.5003,-0.13079 0.14485,-0.15996 0.1533,-0.30208 0.17329,-2.911849 0.0188,-2.456753 0.0344,-2.75374198 0.1494,-2.83989298 0.13342,-0.09997 0.77894,-0.128472 1.08035,-0.0477 l 0.17318,0.04641 V 3.5564646 c 0,1.758809 -0.0315,2.905929 -0.087,3.166029 -0.19877,0.93189 -1.22231,1.43284 -2.29906,1.12521 z m -21.95561,-0.0392 c -0.12566,-0.0328 -0.13469,-0.25827 -0.13469,-3.36061 0,-2.885186 0.0159,-3.348059 0.11982,-3.49647898 0.11193,-0.159804 0.17772,-0.171065 0.99939,-0.171065 1.23305,0 1.12684,-0.133741 2.15462,2.71318198 0.45467,1.259412 0.84904,2.289852 0.87638,2.289852 0.0273,0 0.28756,-0.63212 0.57827,-1.4047 1.08155,-2.874275 1.28707,-3.367042 1.45271,-3.48306098 0.24103,-0.168827 1.76358,-0.164355 1.93361,0.0057 0.10628,0.10627598 0.12095,0.53014198 0.12095,3.49314098 v 3.37219 l -0.17318,0.0464 c -0.29809,0.0799 -0.86922,0.0528 -1.0048,-0.0477 -0.1172,-0.0868 -0.13174,-0.38026 -0.14941,-3.01599 l -0.0196,-2.919771 -1.03909,2.913271 c -0.5715,1.6023 -1.08842,2.96306 -1.14873,3.02392 -0.12549,0.12665 -1.10204,0.10693 -1.23388,-0.0249 -0.042,-0.042 -0.53619,-1.40903 -1.09823,-3.03786 l -1.02188,-2.961521 -0.0201,3.012311 -0.0201,3.01232 -0.1723,0.0462 c -0.19342,0.0518 -0.79405,0.049 -0.99972,-0.005 z m 10.00169,-8.5e-4 c -0.0765,-0.0198 -0.17173,-0.12197 -0.21166,-0.22699 -0.0981,-0.25812 -0.0954,-6.345455 0.003,-6.60418698 l 0.0756,-0.198737 1.98338,0.02054 1.98337,0.02054 0.0235,0.41033898 c 0.0361,0.630421 0.0399,0.628752 -1.45684,0.628752 h -1.29906 v 0.883146 0.883148 l 1.17379,0.02125 1.17378,0.02125 0.0235,0.410339 c 0.0355,0.62035 0.0186,0.62875 -1.26665,0.62875 h -1.10887 l 0.0215,1.01985 0.0215,1.01985 1.34697,0.0385 1.34697,0.0385 0.0234,0.45468 c 0.0161,0.31165 -0.008,0.47471 -0.077,0.51837 -0.10339,0.0656 -3.53143,0.0766 -3.78009,0.0121 z m 5.48847,-0.0457 -0.19243,-0.0973 -0.02,-3.33704 c -0.0151,-2.50963 0.003,-3.36467098 0.0724,-3.44846298 0.0768,-0.09252 0.37385,-0.106856 1.75189,-0.08451 1.55204,0.02517 1.68681,0.03888 2.08275,0.21204298 1.29129,0.564726 1.8359,1.402433 1.90451,2.92946 0.0645,1.43661 -0.22626,2.3293 -0.98876,3.03525 -0.53871,0.49875 -1.11218,0.71513 -2.16533,0.81703 -1.04401,0.10101 -2.21811,0.0883 -2.44497,-0.0264 z m 3.12906,-1.26817 c 0.69061,-0.36111 1.0414,-1.09698 1.04645,-2.19522 0.004,-0.799504 -0.16497,-1.389893 -0.51326,-1.796794 -0.44472,-0.519549 -0.94987,-0.672995 -2.1421,-0.650692 l -0.36561,0.0068 v 2.433056 2.43306 l 0.82742,-0.0315 c 0.6576,-0.0251 0.89304,-0.0659 1.1471,-0.1987 z m 7.47351,1.28464 c -0.12509,-0.0729 -0.1347,-0.32267 -0.1347,-3.50169 V 0.85349162 l 0.19744,-0.07506 c 0.22635,-0.08606 0.59897,-0.09666 0.94749,-0.02696 l 0.24053,0.04811 v 3.48352198 3.48353 l -0.17318,0.0464 c -0.2722,0.0729 -0.92914,0.0518 -1.07758,-0.0346 z m 3.09803,-0.0165 -0.19242,-0.0973 -0.02,-3.40525 -0.02,-3.40525498 0.19823,-0.07537 c 0.22708,-0.08634 0.5994,-0.09704 0.94829,-0.02726 l 0.24053,0.04811 v 2.95176498 2.95175 l 1.21227,0.0212 1.21228,0.0212 0.0233,0.44907 c 0.0137,0.26486 -0.0138,0.49376 -0.0671,0.55803 -0.12381,0.14917 -3.24249,0.15743 -3.53522,0.009 z"
       id="path172" />
  </g>
</svg>
